Coordinates
version=1
nRows=21
nColumns=12
inDegrees=yes

Units are S.I. units (second, meters, Newtons, ...)
Angles are in degrees

endheader
time	SC_y	SC_z	SC_x	AC_y	AC_z	AC_x	GH_y	GH_z	GH_yy	EL_x	PS_y
       0.0              -24.34          11.93          62.52          57.54          1.483          16.36          175.3         -11.07          116.2          49.98          158.4
  0.004625              -24.33          11.93          62.51          57.54          1.481          16.35          175.2         -11.07          116.2          49.99          158.4
   0.00925              -24.33          11.93          62.51          57.54          1.479          16.35          175.2         -11.06          116.1           50.0          158.4
   0.01387              -24.33          11.93          62.51          57.53          1.477          16.34          175.1         -11.06          116.1          50.01          158.4
    0.0185              -24.33          11.93           62.5          57.53          1.475          16.34          175.1         -11.05          116.0          50.02          158.3
   0.02312              -24.33          11.94           62.5          57.53          1.473          16.33          175.0         -11.05          116.0          50.03          158.3
   0.02775              -24.33          11.94          62.49          57.52           1.47          16.32          175.0         -11.04          115.9          50.04          158.3
   0.03237              -24.33          11.94          62.49          57.52          1.468          16.31          174.9         -11.04          115.9          50.06          158.3
     0.037              -24.33          11.94          62.48          57.51          1.465          16.31          174.8         -11.03          115.8          50.07          158.2
   0.04162              -24.33          11.94          62.47          57.51          1.462           16.3          174.8         -11.02          115.7          50.08          158.2
   0.04625              -24.32          11.94          62.47           57.5          1.459          16.29          174.7         -11.02          115.7           50.1          158.2
   0.05087              -24.32          11.95          62.46           57.5          1.455          16.28          174.6         -11.01          115.6          50.12          158.1
    0.0555              -24.32          11.95          62.45          57.49          1.452          16.27          174.5          -11.0          115.5          50.13          158.1
   0.06012              -24.32          11.95          62.44          57.49          1.448          16.26          174.4         -10.99          115.4          50.15          158.0
   0.06475              -24.32          11.95          62.43          57.48          1.443          16.24          174.3         -10.98          115.3          50.17          158.0
   0.06937              -24.31          11.96          62.42          57.47          1.439          16.23          174.2         -10.97          115.2           50.2          157.9
     0.074              -24.31          11.96          62.41          57.46          1.434          16.21          174.1         -10.96          115.1          50.22          157.9
   0.07862              -24.31          11.96           62.4          57.46          1.428           16.2          173.9         -10.95          114.9          50.25          157.8
   0.08325              -24.31          11.97          62.39          57.45          1.422          16.18          173.8         -10.94          114.8          50.28          157.8
   0.08787               -24.3          11.97          62.37          57.43          1.415          16.16          173.6         -10.92          114.6          50.31          157.7
    0.0925               -24.3          11.98          62.36          57.42          1.408          16.14          173.5         -10.91          114.5          50.34          157.6
